<?xml version="1.0" encoding="utf-8"?>
<svg width="24" height="24" viewBox="0 0 24 24" fill="none" xmlns="http://www.w3.org/2000/svg">
  <defs/>
  <path d="M 14.295 4.454 L 21.045 11.204 C 21.15 11.309 21.233 11.433 21.29 11.57 C 21.347 11.706 21.376 11.853 21.376 12.001 C 21.376 12.149 21.347 12.296 21.29 12.432 C 21.233 12.569 21.15 12.693 21.045 12.798 L 14.295 19.548 C 14.084 19.759 13.797 19.878 13.498 19.878 C 13.199 19.878 12.913 19.759 12.701 19.548 C 12.49 19.336 12.371 19.05 12.371 18.751 C 12.371 18.452 12.49 18.165 12.701 17.954 L 17.53 13.125 L 3.749 13.125 C 3.451 13.125 3.164 13.006 2.954 12.796 C 2.743 12.585 2.624 12.298 2.624 12 C 2.624 11.702 2.743 11.415 2.954 11.205 C 3.164 10.994 3.451 10.875 3.749 10.875 L 17.53 10.875 L 12.7 6.046 C 12.489 5.835 12.37 5.548 12.37 5.249 C 12.37 4.95 12.489 4.664 12.7 4.452 C 12.912 4.241 13.198 4.122 13.497 4.122 C 13.796 4.122 14.083 4.241 14.294 4.452 L 14.295 4.454 Z" fill="black"/>
</svg>