<?xml version="1.0" encoding="utf-8"?>
<svg width="92" height="34" viewBox="0 0 92 34" fill="none" xmlns="http://www.w3.org/2000/svg">
  <defs/>
  <path fill-rule="evenodd" clip-rule="evenodd" d="M 86.832 29.181 L 73.35 3.175 L 73.341 3.159 L 73.075 3.159 L 70.299 8.502 L 65.244 18.231 L 65.232 18.224 C 63.481 17.14 61.009 16.463 57.897 16.211 L 56.947 16.143 L 57.889 16.058 C 63.022 15.411 66.472 13.14 66.472 10.404 C 66.472 6.652 61.435 4.034 54.219 4.034 L 39.205 4.034 L 39.205 4.224 L 43.568 4.224 L 43.568 23.612 L 32.973 3.175 L 32.963 3.159 L 32.697 3.159 L 29.921 8.502 L 19.212 29.114 L 19.146 29.119 C 18.963 29.135 18.782 29.147 18.603 29.159 C 18.334 29.171 18.066 29.181 17.798 29.181 L 6.978 29.181 L 27.545 4.224 L 27.698 4.037 L 2.543 4.037 L 2.543 11.757 L 2.81 11.757 C 2.857 7.995 5.983 4.224 12.89 4.224 L 21.223 4.224 L 0.5 29.368 L 28.417 29.368 L 28.417 21.971 L 28.15 21.971 C 28.114 25.25 25.462 28.362 19.695 29.065 L 19.511 29.087 L 23.904 20.63 L 36.208 20.63 L 40.641 29.181 L 36.268 29.181 L 36.268 29.368 L 53.433 29.368 L 53.433 29.181 L 49.041 29.181 L 49.041 16.281 L 54.109 16.281 C 59.267 16.281 62.225 17.895 62.225 20.708 L 62.225 22.996 C 62.225 23.248 62.249 23.617 62.276 23.927 L 62.276 23.937 L 59.552 29.18 L 55.993 29.18 L 55.993 29.367 L 63.36 29.367 L 63.36 29.18 L 59.839 29.18 L 62.32 24.406 C 62.325 24.453 62.328 24.48 62.328 24.48 L 62.396 24.909 L 62.462 25.194 C 62.876 26.956 63.837 28.247 65.318 29.041 L 65.531 29.149 C 66.656 29.696 68.054 29.974 69.688 29.974 C 71.853 29.974 73.296 29.598 74.488 28.706 L 74.332 28.604 C 73.234 29.314 72.312 29.602 71.158 29.602 C 69.19 29.602 68.161 27.929 68.161 26.28 L 68.161 23.075 C 68.171 22.279 67.993 21.488 67.635 20.733 L 67.586 20.634 L 67.586 20.631 L 76.585 20.631 L 81.019 29.183 L 76.645 29.183 L 76.645 29.369 L 91.5 29.369 L 91.5 29.183 L 86.832 29.181 Z M 24.002 20.442 L 30.063 8.776 L 36.11 20.442 L 24.002 20.442 Z M 49.044 16.094 L 49.044 4.224 L 52.912 4.224 C 58.08 4.224 60.808 6.377 60.808 10.446 C 60.808 14.773 59.242 16.094 54.109 16.094 L 49.044 16.094 Z M 67.481 20.442 L 67.455 20.395 C 67.055 19.714 66.472 19.09 65.739 18.561 L 65.486 18.384 L 65.459 18.366 L 70.437 8.776 L 76.485 20.442 L 67.481 20.442 Z" fill="white" style=""/>
</svg>